<svg width="70" height="9" viewBox="0 0 70 9" fill="none" xmlns="http://www.w3.org/2000/svg">
<path d="M0.889319 0.102539H7.26768C7.58572 0.754043 7.74473 1.18687 7.74473 1.39951C7.74473 1.93942 7.39136 2.20786 6.68462 2.20786H5.17101V8.10156C4.57764 8.32325 4.10648 8.43485 3.75752 8.43938C3.23041 8.43938 2.85201 8.23729 2.62084 7.8301V2.20786H0.594843C0.201716 1.64986 0.00294495 1.25172 0 1.01344C0.00294495 0.687686 0.300366 0.384556 0.889319 0.102539Z" fill="#FFB319"/>
<path d="M8.05234 0.102539H13.9183C14.3497 0.437339 14.5691 0.71634 14.5779 0.941049C14.5691 1.17028 14.4307 1.5081 14.1598 1.9545H10.6084V3.33593L13.4884 3.09463C14.0655 3.32386 14.3541 3.56516 14.3541 3.81852C14.3541 4.10506 14.173 4.43836 13.8123 4.81991L10.6084 5.06121V6.59345H13.8417C14.2923 6.85586 14.5249 7.14843 14.5367 7.47418C14.5367 7.65968 14.4189 7.99147 14.1833 8.46954H8.05234V0.102539Z" fill="#FFB319"/>
<path d="M22.1405 6.50297C22.1051 6.89358 21.793 7.31434 21.204 7.76375C20.618 8.21016 19.8863 8.43336 19.0072 8.43336C17.6674 8.42883 16.6706 8.0322 16.0154 7.23893C15.3631 6.44717 15.0377 5.45182 15.0377 4.25287C15.0377 3.15195 15.3911 2.16866 16.0978 1.30301C16.8075 0.434336 17.7822 0 19.019 0C19.898 0 20.8065 0.372503 21.7459 1.116C21.871 1.23665 22.0168 1.42215 22.1817 1.67099C21.8755 2.45973 21.4411 2.85335 20.8801 2.85335C20.5503 2.85335 20.2706 2.76286 20.0438 2.58189C19.6625 2.34511 19.3209 2.22597 19.019 2.22597H19.0072C18.6023 2.22597 18.2681 2.38131 18.006 2.69047C17.7425 2.99662 17.6114 3.51691 17.6114 4.25287C17.6114 5.08233 17.7439 5.63883 18.0119 5.92386C18.2784 6.2104 18.6097 6.35216 19.0072 6.35216C19.3209 6.35216 19.5344 6.29636 19.6492 6.18325C19.7626 6.06713 19.9334 5.85599 20.1616 5.54985C21.4602 5.58303 22.1199 5.89973 22.1405 6.50297Z" fill="#FFB319"/>
<path d="M22.6944 0.512744C23.354 0.275971 23.809 0.15683 24.0608 0.15683C24.3081 0.15683 24.6792 0.250333 25.1739 0.434322V3.34799L26.9525 3.23941V0.512744C27.5415 0.275971 27.9611 0.15683 28.2129 0.15683C28.4485 0.15683 28.8578 0.239776 29.4438 0.40416V8.2584C28.7253 8.49065 28.2379 8.60828 27.9832 8.60828C27.3942 8.60828 27.0497 8.32928 26.9525 7.76977V5.13963L25.1739 5.26028V8.2584C24.5334 8.49065 24.0696 8.60828 23.7839 8.60828C23.2303 8.60828 22.8667 8.33682 22.6944 7.7939V0.512744Z" fill="#FFB319"/>
<path d="M33.7958 0.102539H40.1741C40.4922 0.754043 40.6512 1.18687 40.6512 1.39951C40.6512 1.93942 40.2978 2.20786 39.5911 2.20786H38.0775V8.10156C37.4841 8.32325 37.0129 8.43485 36.664 8.43938C36.1369 8.43938 35.7585 8.23729 35.5273 7.8301V2.20786H33.5013C33.1082 1.64986 32.9094 1.25172 32.9064 1.01344C32.9094 0.687686 33.2068 0.384556 33.7958 0.102539Z" fill="#021B66"/>
<path d="M43.1322 3.52292L44.3101 3.4626C44.5015 3.43847 44.6649 3.351 44.7989 3.19717C44.9314 3.04485 44.9992 2.83975 44.9992 2.58186C44.9992 2.30136 44.8946 2.12038 44.687 2.03894C44.4779 1.95901 44.26 1.91528 44.0333 1.90623H43.1322V3.52292ZM45.2995 8.08948L43.5562 5.24217L43.1322 5.21804V8.11361C42.6684 8.35944 42.3091 8.4831 42.0544 8.48763C41.489 8.48763 41.1239 8.22823 40.959 7.70944V0.0964966H44.0215C44.9668 0.101021 45.7486 0.334778 46.3655 0.79626C46.9854 1.25925 47.2961 1.85646 47.2961 2.5879C47.2961 3.07502 47.1106 3.59381 46.7425 4.14427C46.3729 4.69624 46.1359 4.97674 46.0298 4.98881L47.9204 8.02313C47.087 8.3338 46.5246 8.48763 46.2301 8.48763C45.8885 8.48763 45.5778 8.35491 45.2995 8.08948Z" fill="#021B66"/>
<path d="M48.5079 0.102539H54.3739C54.8053 0.437339 55.0247 0.71634 55.0335 0.941049C55.0247 1.17028 54.8863 1.5081 54.6153 1.9545H51.064V3.33593L53.9439 3.09463C54.5211 3.32386 54.8097 3.56516 54.8097 3.81852C54.8097 4.10506 54.6286 4.43836 54.2679 4.81991L51.064 5.06121V6.59345H54.2973C54.7479 6.85586 54.9805 7.14843 54.9923 7.47418C54.9923 7.65968 54.8745 7.99147 54.6389 8.46954H48.5079V0.102539Z" fill="#021B66"/>
<path d="M62.5961 6.50297C62.5607 6.89358 62.2486 7.31434 61.6596 7.76375C61.0736 8.21016 60.3419 8.43336 59.4628 8.43336C58.123 8.42883 57.1262 8.0322 56.471 7.23893C55.8187 6.44717 55.4933 5.45182 55.4933 4.25287C55.4933 3.15195 55.8467 2.16866 56.5534 1.30301C57.2631 0.434336 58.2378 0 59.4746 0C60.3536 0 61.2621 0.372503 62.2015 1.116C62.3266 1.23665 62.4724 1.42215 62.6373 1.67099C62.331 2.45973 61.8967 2.85335 61.3357 2.85335C61.0059 2.85335 60.7261 2.76286 60.4994 2.58189C60.1181 2.34511 59.7765 2.22597 59.4746 2.22597H59.4628C59.0579 2.22597 58.7237 2.38131 58.4616 2.69047C58.1981 2.99662 58.067 3.51691 58.067 4.25287C58.067 5.08233 58.1995 5.63883 58.4675 5.92386C58.734 6.2104 59.0653 6.35216 59.4628 6.35216C59.7765 6.35216 59.99 6.29636 60.1048 6.18325C60.2182 6.06713 60.389 5.85599 60.6172 5.54985C61.9158 5.58303 62.5755 5.89973 62.5961 6.50297Z" fill="#021B66"/>
<path d="M63.1505 0.573092C63.8337 0.227734 64.2813 0.0452531 64.4933 0.0241394C64.7171 0.0241394 64.8879 0.283534 65.0057 0.802325V2.61206L67.0906 0.404183C67.5617 0.171934 67.9563 0.0543016 68.2744 0.0543016C68.722 0.17495 69.0312 0.503719 69.2049 1.03759L66.9433 3.40231L70 7.5285C69.9176 7.86632 69.7438 8.07594 69.4817 8.15587C69.2226 8.23731 68.9414 8.28557 68.6395 8.30065C68.2037 8.30065 67.8327 8.17699 67.5264 7.92664L65.4827 4.88026L65.0646 5.29046L65.0822 8.18C64.8496 8.36098 64.6199 8.45297 64.3932 8.4575C64.1105 8.4575 63.6953 8.24033 63.1505 7.80599V0.573092Z" fill="#021B66"/>
</svg>
