<svg width="74" height="78" viewBox="0 0 74 78" fill="none" xmlns="http://www.w3.org/2000/svg">
<path d="M24.7512 62.8055C24.7512 63.1281 24.4081 63.3861 23.9754 63.3861C23.4831 63.4345 23.1399 63.1764 23.1399 62.8055C23.1399 62.4829 23.4831 62.2248 23.9157 62.2248C24.3633 62.1765 24.7512 62.4345 24.7512 62.8055ZM20.1113 62.0797C20.0069 62.4023 20.3052 62.7732 20.7528 62.87C21.1407 63.0313 21.5883 62.87 21.6778 62.5474C21.7673 62.2248 21.4839 61.8539 21.0363 61.7087C20.6484 61.5958 20.2157 61.7571 20.1113 62.0797ZM26.7056 61.8055C26.273 61.9184 25.9746 62.2249 26.0194 62.5958C26.0641 62.9184 26.452 63.1281 26.8996 63.0152C27.3323 62.9023 27.6306 62.5958 27.5859 62.2732C27.5411 61.9668 27.1383 61.7571 26.7056 61.8055ZM36.5226 0C15.8294 0 0 16.9836 0 39.3542C0 57.2411 10.4137 72.5473 25.2883 77.9343C27.198 78.3053 27.8694 77.0311 27.8694 75.9827C27.8694 74.9827 27.8246 69.4667 27.8246 66.0796C27.8246 66.0796 17.381 68.4989 15.1879 61.2733C15.1879 61.2733 13.4871 56.5798 11.0403 55.3701C11.0403 55.3701 7.62379 52.8379 11.279 52.8863C11.279 52.8863 14.994 53.2089 17.0379 57.0475C20.3052 63.2732 25.7806 61.4829 27.9141 60.4184C28.2573 57.8378 29.227 56.0475 30.3012 54.983C21.9613 53.983 13.5468 52.6766 13.5468 37.1607C13.5468 32.7253 14.6806 30.4995 17.0677 27.6609C16.6798 26.6125 15.4117 22.29 17.4556 16.7094C20.5738 15.661 27.75 21.0642 27.75 21.0642C30.7339 20.161 33.9415 19.6932 37.1194 19.6932C40.2972 19.6932 43.5048 20.161 46.4887 21.0642C46.4887 21.0642 53.6649 15.6449 56.7831 16.7094C58.827 22.3061 57.5589 26.6125 57.171 27.6609C59.5581 30.5157 61.0202 32.7414 61.0202 37.1607C61.0202 52.725 52.2327 53.9669 43.8927 54.983C45.2653 56.2572 46.429 58.6765 46.429 62.4668C46.429 67.9022 46.3843 74.6279 46.3843 75.9504C46.3843 76.9988 47.0706 78.273 48.9653 77.902C63.8847 72.5473 74 57.2411 74 39.3542C74 16.9836 57.2157 0 36.5226 0ZM14.5016 55.6282C14.3077 55.7895 14.3524 56.1604 14.606 56.4669C14.8448 56.7249 15.1879 56.8378 15.3819 56.6282C15.5758 56.4669 15.531 56.0959 15.2774 55.7895C15.0387 55.5314 14.6956 55.4185 14.5016 55.6282ZM12.8903 54.3217C12.7859 54.5314 12.9351 54.7895 13.2335 54.9508C13.4722 55.1121 13.7706 55.0637 13.875 54.8379C13.9794 54.6282 13.8302 54.3701 13.5319 54.2088C13.2335 54.1121 12.9948 54.1605 12.8903 54.3217ZM17.7242 60.0636C17.4855 60.2733 17.575 60.7571 17.9181 61.0636C18.2613 61.4345 18.694 61.4829 18.8879 61.2249C19.0819 61.0152 18.9923 60.5313 18.694 60.2249C18.3657 59.8539 17.9181 59.8055 17.7242 60.0636ZM16.0234 57.6927C15.7847 57.854 15.7847 58.2733 16.0234 58.6443C16.2621 59.0152 16.6649 59.1765 16.8589 59.0152C17.0976 58.8055 17.0976 58.3862 16.8589 58.0152C16.65 57.6443 16.2621 57.483 16.0234 57.6927Z" fill="white"/>
</svg>
