<svg width="62" height="84" viewBox="0 0 62 84" fill="none" xmlns="http://www.w3.org/2000/svg">
<path d="M45.1302 51.3345C46.74 50.2353 48.974 49.2837 48.974 49.2837C48.974 49.2837 42.617 50.4321 36.2929 50.9571C28.5561 51.597 20.2444 51.7282 16.0722 51.1704C6.19999 49.8579 21.4928 46.2322 21.4928 46.2322C21.4928 46.2322 15.563 45.8385 8.25327 49.3493C-0.370519 53.5165 29.6074 55.4196 45.1302 51.3345ZM31.1022 46.0681C27.9812 39.0628 17.452 32.9105 31.1022 22.1481C48.1362 8.72801 39.3975 0 39.3975 0C42.9291 13.8631 26.9792 18.063 21.2136 26.6762C17.2877 32.566 23.1355 38.8823 31.1022 46.0681ZM49.9267 17.1607C49.9431 17.1607 21.1479 24.3466 34.8967 40.162C38.954 44.8213 33.829 49.0212 33.829 49.0212C33.829 49.0212 44.1282 43.7057 39.3975 37.0612C34.9788 30.8597 31.595 27.7754 49.9267 17.1607ZM48.9247 61.539C48.8349 61.6953 48.7244 61.8388 48.5962 61.9656C69.6711 56.4368 61.9179 42.4588 51.8486 46.0025C51.3046 46.2018 50.8346 46.5625 50.5016 47.0361C51.0896 46.8236 51.6939 46.659 52.3085 46.5439C57.4007 45.4775 64.7103 53.3524 48.9247 61.539ZM56.6779 71.76C56.6779 71.76 59.0597 73.7123 54.0661 75.2381C44.5553 78.1091 14.5117 78.9786 6.16713 75.3529C3.16113 74.0568 8.79534 72.2358 10.5694 71.8584C12.4091 71.4647 13.4768 71.5303 13.4768 71.5303C10.1423 69.1842 -8.09086 76.1404 4.21241 78.1255C37.7548 83.5723 65.3838 75.681 56.6779 71.76ZM19.9488 64.9679C7.0213 68.5772 27.8169 76.0256 44.2761 68.9874C42.6708 68.3645 41.1213 67.6071 39.6439 66.7233C32.3013 68.1179 28.9011 68.2163 22.232 67.4616C16.7292 66.8382 19.9488 64.9679 19.9488 64.9679ZM49.4832 80.9146C36.5557 83.3426 20.6058 83.0637 11.1607 81.5052C11.1607 81.4888 13.099 83.0965 23.0533 83.7364C38.1983 84.7043 61.4579 83.195 62 76.042C62 76.042 60.9487 78.749 49.4832 80.9146ZM42.3213 57.9133C32.597 59.7836 26.9628 59.7344 19.8502 58.9961C14.3474 58.4219 17.9448 55.7641 17.9448 55.7641C3.68677 60.489 25.8622 65.8374 45.7873 60.0133C44.4996 59.559 43.3196 58.8441 42.3213 57.9133Z" fill="white"/>
</svg>
