<svg width="74" height="84" viewBox="0 0 74 84" fill="none" xmlns="http://www.w3.org/2000/svg">
<g clip-path="url(#clip0_75_14)">
<path d="M0 5.25V78.75H74V5.25H0ZM40.2705 62.5734C40.2705 69.7266 36.042 72.9914 29.8808 72.9914C24.3143 72.9914 21.0933 70.1367 19.4415 66.675L25.1071 63.2789C26.1973 65.1984 27.1884 66.8227 29.5835 66.8227C31.8629 66.8227 33.3165 65.9367 33.3165 62.475V38.9977H40.2705V62.5734ZM56.7223 72.9914C50.2638 72.9914 46.0848 69.9398 44.0531 65.9367L49.7188 62.6883C51.2054 65.1 53.1545 66.8883 56.5737 66.8883C59.4478 66.8883 61.2978 65.4609 61.2978 63.4758C61.2978 61.1133 59.4147 60.2766 56.2268 58.882L54.4924 58.1437C49.471 56.0273 46.1509 53.3531 46.1509 47.7258C46.1509 42.5414 50.1317 38.6039 56.3259 38.6039C60.7527 38.6039 63.9241 40.1297 66.2036 44.1328L60.7857 47.5781C59.5964 45.4617 58.308 44.625 56.3094 44.625C54.2777 44.625 52.9893 45.9047 52.9893 47.5781C52.9893 49.6453 54.2777 50.482 57.2674 51.7781L59.0018 52.5164C64.9152 55.0266 68.2353 57.6023 68.2353 63.3773C68.2353 69.5789 63.3129 72.9914 56.7223 72.9914Z" fill="white"/>
</g>
<defs>
<clipPath id="clip0_75_14">
<rect width="74" height="84" fill="white"/>
</clipPath>
</defs>
</svg>
