<svg width="351" height="45" viewBox="0 0 351 45" fill="none" xmlns="http://www.w3.org/2000/svg">
<path d="M4.86211 1.33386H36.7459C38.3357 4.61559 39.1306 6.79581 39.1306 7.86693C39.1306 10.5865 37.3642 11.9387 33.8313 11.9387H26.2652V41.6262C23.2991 42.7429 20.9439 43.305 19.1995 43.3278C16.5646 43.3278 14.6731 42.3099 13.5175 40.2588V11.9387H3.39009C1.42495 9.12796 0.431347 7.12247 0.416626 5.9222C0.431347 4.28134 1.91808 2.75443 4.86211 1.33386Z" fill="white"/>
<path d="M40.6682 1.33386H69.9907C72.1472 3.0203 73.2438 4.42568 73.288 5.55757C73.2438 6.71225 72.552 8.41388 71.1977 10.6625H53.4452V17.621L67.8415 16.4055C70.7267 17.5602 72.1692 18.7756 72.1692 20.0519C72.1692 21.4952 71.2639 23.1741 69.4607 25.096L53.4452 26.3115V34.0296H69.6079C71.8601 35.3514 73.023 36.8251 73.0819 38.466C73.0819 39.4004 72.4931 41.0716 71.3155 43.4797H40.6682V1.33386Z" fill="white"/>
<path d="M111.09 33.5738C110.914 35.5413 109.353 37.6608 106.409 39.9246C103.48 42.1732 99.8221 43.2975 95.4282 43.2975C88.7305 43.2747 83.7477 41.2768 80.4725 37.281C77.212 33.2927 75.5854 28.279 75.5854 22.2397C75.5854 16.6942 77.3518 11.7412 80.8847 7.38078C84.4322 3.00514 89.3046 0.817322 95.487 0.817322C99.881 0.817322 104.422 2.69368 109.118 6.4388C109.743 7.04653 110.472 7.98091 111.296 9.23434C109.766 13.2074 107.594 15.1901 104.79 15.1901C103.142 15.1901 101.743 14.7343 100.61 13.8227C98.7034 12.63 96.9959 12.0299 95.487 12.0299H95.4282C93.4041 12.0299 91.7334 12.8123 90.4233 14.3696C89.1059 15.9117 88.4508 18.5326 88.4508 22.2397C88.4508 26.4178 89.1132 29.221 90.4528 30.6567C91.7849 32.1001 93.4409 32.8142 95.4282 32.8142C96.9959 32.8142 98.0631 32.5331 98.6371 31.9633C99.2039 31.3784 100.058 30.3149 101.198 28.7728C107.69 28.9399 110.987 30.5352 111.09 33.5738Z" fill="white"/>
<path d="M113.861 3.40016C117.158 2.20749 119.432 1.60736 120.691 1.60736C121.927 1.60736 123.782 2.07835 126.255 3.00513V17.6817L135.146 17.1348V3.40016C138.09 2.20749 140.188 1.60736 141.446 1.60736C142.624 1.60736 144.67 2.02517 147.599 2.8532V42.4162C144.008 43.5861 141.571 44.1787 140.298 44.1787C137.354 44.1787 135.632 42.7733 135.146 39.955V26.7065L126.255 27.3142V42.4162C123.053 43.5861 120.735 44.1787 119.307 44.1787C116.54 44.1787 114.722 42.8113 113.861 40.0765V3.40016Z" fill="white"/>
<path d="M169.354 1.33386H201.238C202.828 4.61559 203.623 6.79581 203.623 7.86693C203.623 10.5865 201.856 11.9387 198.323 11.9387H190.757V41.6262C187.791 42.7429 185.436 43.305 183.692 43.3278C181.057 43.3278 179.165 42.3099 178.01 40.2588V11.9387H167.882C165.917 9.12796 164.923 7.12247 164.909 5.9222C164.923 4.28134 166.41 2.75443 169.354 1.33386Z" fill="white"/>
<path d="M216.024 18.563L221.912 18.2591C222.868 18.1375 223.685 17.6969 224.355 16.9221C225.018 16.1548 225.356 15.1217 225.356 13.8227C225.356 12.4097 224.834 11.4981 223.796 11.0879C222.751 10.6853 221.661 10.465 220.528 10.4194H216.024V18.563ZM226.858 41.5654L218.143 27.2231L216.024 27.1015V41.687C213.705 42.9252 211.909 43.5481 210.636 43.5709C207.81 43.5709 205.984 42.2643 205.16 39.6511V1.3035H220.469C225.194 1.32629 229.102 2.50376 232.186 4.82832C235.285 7.16047 236.838 10.1687 236.838 13.8531C236.838 16.3068 235.911 18.92 234.07 21.6927C232.223 24.4731 231.038 25.8861 230.508 25.9468L239.959 41.2312C235.793 42.7961 232.981 43.5709 231.509 43.5709C229.802 43.5709 228.249 42.9024 226.858 41.5654Z" fill="white"/>
<path d="M242.896 1.33386H272.219C274.375 3.0203 275.472 4.42568 275.516 5.55757C275.472 6.71225 274.78 8.41388 273.426 10.6625H255.673V17.621L270.07 16.4055C272.955 17.5602 274.397 18.7756 274.397 20.0519C274.397 21.4952 273.492 23.1741 271.689 25.096L255.673 26.3115V34.0296H271.836C274.088 35.3514 275.251 36.8251 275.31 38.466C275.31 39.4004 274.721 41.0716 273.544 43.4797H242.896V1.33386Z" fill="white"/>
<path d="M313.318 33.5738C313.142 35.5413 311.581 37.6608 308.637 39.9246C305.708 42.1732 302.05 43.2975 297.656 43.2975C290.959 43.2747 285.976 41.2768 282.701 37.281C279.44 33.2927 277.814 28.279 277.814 22.2397C277.814 16.6942 279.58 11.7412 283.113 7.38078C286.66 3.00514 291.533 0.817322 297.715 0.817322C302.109 0.817322 306.65 2.69368 311.346 6.4388C311.972 7.04653 312.7 7.98091 313.525 9.23434C311.994 13.2074 309.822 15.1901 307.018 15.1901C305.37 15.1901 303.971 14.7343 302.838 13.8227C300.931 12.63 299.224 12.0299 297.715 12.0299H297.656C295.632 12.0299 293.961 12.8123 292.651 14.3696C291.334 15.9117 290.679 18.5326 290.679 22.2397C290.679 26.4178 291.341 29.221 292.681 30.6567C294.013 32.1001 295.669 32.8142 297.656 32.8142C299.224 32.8142 300.291 32.5331 300.865 31.9633C301.432 31.3784 302.286 30.3149 303.427 28.7728C309.918 28.9399 313.215 30.5352 313.318 33.5738Z" fill="white"/>
<path d="M316.089 3.70403C319.504 1.96441 321.741 1.04523 322.801 0.938873C323.92 0.938873 324.774 2.24549 325.363 4.85871V13.9746L335.784 2.85321C338.14 1.68334 340.112 1.09081 341.702 1.09081C343.939 1.69853 345.485 3.35459 346.353 6.04378L335.048 17.9552L350.328 38.7395C349.916 40.4411 349.047 41.4971 347.737 41.8997C346.442 42.3099 345.036 42.553 343.527 42.629C341.349 42.629 339.494 42.006 337.963 40.745L327.747 25.3999L325.657 27.4662L325.745 42.0212C324.582 42.9328 323.434 43.3962 322.301 43.419C320.888 43.419 318.812 42.3251 316.089 40.1373V3.70403Z" fill="white"/>
</svg>
