<svg width="75" height="83" viewBox="0 0 75 83" fill="none" xmlns="http://www.w3.org/2000/svg">
<g clip-path="url(#clip0_75_10)">
<path d="M73.6272 32.5029C72.3382 27.4937 69.894 23.7166 64.6875 23.7166H57.9743V31.4006C57.9743 37.3662 52.7511 42.3916 46.7913 42.3916H28.9118C24.0234 42.3916 19.9721 46.4443 19.9721 51.1941V67.6969C19.9721 72.398 24.1908 75.1539 28.9118 76.4994C34.5703 78.1043 40.0112 78.3961 46.7913 76.4994C51.2946 75.235 55.731 72.6898 55.731 67.6969V61.099H37.8683V58.8943H64.6875C69.894 58.8943 71.8192 55.3766 73.6272 50.108C75.5022 44.6773 75.4185 39.4574 73.6272 32.5029ZM47.9129 65.4922C49.7712 65.4922 51.2779 66.9674 51.2779 68.783C51.2779 70.6148 49.7712 72.09 47.9129 72.09C46.0714 72.09 44.548 70.5986 44.548 68.783C44.5647 66.9512 46.0714 65.4922 47.9129 65.4922ZM28.0915 40.2193H45.971C50.9431 40.2193 54.9107 36.2477 54.9107 31.4168V14.8978C54.9107 10.1967 50.8259 6.6789 45.971 5.88457C39.9777 4.92812 33.4654 4.97675 28.0915 5.90078C20.5245 7.19765 19.1518 9.90488 19.1518 14.9141V21.5119H37.048V23.7166H12.4386C7.23213 23.7166 2.67856 26.748 1.25557 32.5029C-0.385056 39.1008 -0.452021 43.2184 1.25557 50.108C2.52789 55.2307 5.55802 58.8943 10.7645 58.8943H16.9085V50.9834C16.9085 45.2609 22.0145 40.2193 28.0915 40.2193ZM26.9699 17.1025C25.1116 17.1025 23.6049 15.6273 23.6049 13.8117C23.6216 11.9799 25.1116 10.5047 26.9699 10.5047C28.8114 10.5047 30.3348 11.9961 30.3348 13.8117C30.3348 15.6273 28.8281 17.1025 26.9699 17.1025Z" fill="white"/>
</g>
<defs>
<clipPath id="clip0_75_10">
<rect width="75" height="83" fill="white"/>
</clipPath>
</defs>
</svg>
